<?xml version="1.0" encoding="UTF-8"?>
<svg width="22px" height="16px" viewBox="0 0 22 16" version="1.1" xmlns="http://www.w3.org/2000/svg" xmlns:xlink="http://www.w3.org/1999/xlink">
    <title>cockpit-white</title>
    <g id="Page-1" stroke="none" stroke-width="1" fill="none" fill-rule="evenodd">
        <g id="Artboard" transform="translate(-112.000000, -211.000000)" fill="#FFFFFF" fill-rule="nonzero">
            <g id="cockpit-white" transform="translate(112.000000, 211.000000)">
                <path d="M8.3,15.6 C7.7,14.7 7.3,13.7 7.1,12.7 C6.9,11.9 6.8,11.2 6.9,10.4 C7,9.6 7.2,8.9 7.5,8.2 C7.8,7.5 8.2,6.9 8.7,6.3 C8.7,6.3 8.7,6.3 8.7,6.3 C8.2,6 7.7,5.7 7.2,5.4 C7.7,4.7 8.2,4 8.8,3.2 C8.8,3.2 8.7,3.2 8.7,3.2 C8.1,3.5 7.4,3.8 6.8,4.2 C6.8,4.2 6.7,4.2 6.7,4.3 C6.5,4.4 6.3,4.6 6.1,4.8 C6.1,4.8 6,4.9 6,4.9 C5.6,4.9 5.1,4.9 4.7,4.9 C4.6,4.9 4.4,4.9 4.3,5 C3.9,5.1 3.6,5.2 3.2,5.4 C3.2,5.4 3.1,5.4 3.1,5.4 C3.1,5.2 3.1,5 3.2,4.8 C3.2,4.7 3.2,4.6 3.2,4.5 C3.2,4.4 3.2,4.4 3.3,4.4 C4,3.9 4.7,3.4 5.5,3 C5.6,2.9 5.6,2.9 5.6,2.8 C5.6,2.6 5.5,2.5 5.3,2.4 C5.1,2.1 4.8,2 4.6,2 C4.2,1.9 3.9,1.9 3.5,2 C3.1,2.2 2.7,2.3 2.2,2.5 C1.9,2.6 1.5,2.7 1.2,2.7 C1,2.7 0.8,2.6 0.7,2.5 C0.5,2.1 0.4,1.7 0.5,1.3 C0.6,1 0.8,0.8 1.1,0.6 C1.3,0.5 1.5,0.5 1.7,0.4 C2,0.4 2.3,0.4 2.5,0.4 C2.7,0.6 2.9,0.7 3,0.9 C3.1,1.1 3.2,1.2 3.4,1.1 C3.7,1.1 4,1.1 4.3,1.1 C4.8,1.1 5.1,1.4 5.5,1.7 C5.8,2 6.1,2.2 6.2,2.6 C6.4,2.5 6.7,2.4 6.9,2.4 C8.2,2 9.6,1.6 10.9,1.1 C10.9,1.1 11,1.1 11,1.1 C12.6,1.6 14.1,2.1 15.7,2.6 C15.7,2.6 15.7,2.6 15.8,2.6 C15.9,2.4 16,2.2 16.1,2 C16.5,1.6 17,1.3 17.5,1.1 C17.8,1 18.1,1.1 18.4,1.1 C18.4,1.1 18.4,1.1 18.5,1.1 C18.7,1.1 18.8,1.1 18.9,0.9 C19,0.6 19.2,0.5 19.5,0.5 C19.9,0.4 20.3,0.5 20.7,0.6 C21.1,0.7 21.4,1 21.4,1.4 C21.5,1.8 21.3,2.2 21,2.5 C20.8,2.7 20.6,2.7 20.4,2.7 C20,2.7 19.6,2.5 19.2,2.4 C19,2.3 18.7,2.2 18.5,2.1 C18,1.9 17.5,1.9 17,2.1 C16.8,2.2 16.6,2.2 16.5,2.4 C16.4,2.5 16.3,2.7 16.3,2.8 C16.3,2.9 16.3,2.9 16.4,3 C17.2,3.5 17.9,4 18.7,4.5 C18.8,4.5 18.8,4.6 18.8,4.6 C18.8,4.9 18.9,5.2 18.9,5.5 C18.8,5.5 18.7,5.4 18.6,5.4 C18.2,5.3 17.9,5.1 17.5,5 C17.4,5 17.4,5 17.3,5 C16.8,5 16.4,5 15.9,5 C15.8,5 15.8,5 15.7,4.9 C15.5,4.7 15.4,4.5 15.2,4.3 C15.2,4.3 15.1,4.2 15.1,4.2 C14.5,3.9 13.8,3.6 13.2,3.2 C13.2,3.2 13.2,3.2 13.1,3.2 C13.6,3.9 14.1,4.6 14.6,5.3 C14.1,5.6 13.6,5.9 13.2,6.2 C13.4,6.4 13.5,6.6 13.7,6.8 C14.3,7.6 14.8,8.6 15,9.6 C15.1,10.2 15.2,10.9 15.1,11.6 C14.9,13 14.5,14.2 13.8,15.4 C13.8,15.5 13.7,15.5 13.7,15.6 C11.9,15.6 10.1,15.6 8.3,15.6 Z" id="Path"></path>
            </g>
        </g>
    </g>
</svg>